HIERARCHY
ROOT joint_Root
{
	OFFSET 0.0 0.0 0.0
	CHANNELS 6 Xposition Yposition Zposition Zrotation Xrotation Yrotation 
	JOINT Hips
	{
		OFFSET 4.5925 91.4895 -427.239
		CHANNELS 6 Xposition Yposition Zposition Zrotation Xrotation Yrotation 
		JOINT Spine
		{
			OFFSET 15.7357 0.0 0.0
			CHANNELS 6 Xposition Yposition Zposition Zrotation Xrotation Yrotation 
			JOINT Chest
			{
				OFFSET 8.98455 -0.406207 0.0
				CHANNELS 6 Xposition Yposition Zposition Zrotation Xrotation Yrotation 
				JOINT Neck
				{
					OFFSET 16.3773 0.0 0.0
					CHANNELS 6 Xposition Yposition Zposition Zrotation Xrotation Yrotation 
					JOINT Head
					{
						OFFSET 6.45672 0.0 0.0
						CHANNELS 6 Xposition Yposition Zposition Zrotation Xrotation Yrotation 
						End Site
						{
							OFFSET 0.0 0.0 0.0
						}
					}
				}
				JOINT Shoulder_L
				{
					OFFSET 12.9942 -0.242716 4.98039
					CHANNELS 6 Xposition Yposition Zposition Zrotation Xrotation Yrotation 
					JOINT UpperArm_L
					{
						OFFSET 5.34809 0.0 0.0
						CHANNELS 6 Xposition Yposition Zposition Zrotation Xrotation Yrotation 
						JOINT LowerArm_L
						{
							OFFSET 24.3286 1.87007e-05 0.0
							CHANNELS 6 Xposition Yposition Zposition Zrotation Xrotation Yrotation 
							JOINT Hand_L
							{
								OFFSET 22.2916 0.0 0.0
								CHANNELS 6 Xposition Yposition Zposition Zrotation Xrotation Yrotation 
								End Site
								{
									OFFSET 0.0 0.0 0.0
								}
							}
						}
					}
				}
				JOINT Shoulder_R
				{
					OFFSET 12.9945 -0.242716 -4.98039
					CHANNELS 6 Xposition Yposition Zposition Zrotation Xrotation Yrotation 
					JOINT UpperArm_R
					{
						OFFSET -5.34813 0.0 0.0
						CHANNELS 6 Xposition Yposition Zposition Zrotation Xrotation Yrotation 
						JOINT LowerArm_R
						{
							OFFSET -24.3289 0.000322201 0.0
							CHANNELS 6 Xposition Yposition Zposition Zrotation Xrotation Yrotation 
							JOINT Hand_R
							{
								OFFSET -22.2915 -0.000108084 0.0
								CHANNELS 6 Xposition Yposition Zposition Zrotation Xrotation Yrotation 
								End Site
								{
									OFFSET 0.0 0.0 0.0
								}
							}
						}
					}
				}
			}
		}
		JOINT UpperLeg_L
		{
			OFFSET -2.19248 -6.46944 0.0
			CHANNELS 6 Xposition Yposition Zposition Zrotation Xrotation Yrotation 
			JOINT LowerLeg_L
			{
				OFFSET 39.0811 0.0 -1.23785e-05
				CHANNELS 6 Xposition Yposition Zposition Zrotation Xrotation Yrotation 
				JOINT Foot_L
				{
					OFFSET 40.9854 0.0 -1.26872e-05
					CHANNELS 6 Xposition Yposition Zposition Zrotation Xrotation Yrotation 
					JOINT Toes_L
					{
						OFFSET 11.7543 0.0 0.0
						CHANNELS 6 Xposition Yposition Zposition Zrotation Xrotation Yrotation 
						End Site
						{
							OFFSET 0.0 0.0 0.0
						}
					}
				}
			}
		}
		JOINT UpperLeg_R
		{
			OFFSET -2.19251 6.46944 0.0
			CHANNELS 6 Xposition Yposition Zposition Zrotation Xrotation Yrotation 
			JOINT LowerLeg_R
			{
				OFFSET -39.0811 -0.00228153 -0.0401928
				CHANNELS 6 Xposition Yposition Zposition Zrotation Xrotation Yrotation 
				JOINT Foot_R
				{
					OFFSET -40.9854 0.0 0.0
					CHANNELS 6 Xposition Yposition Zposition Zrotation Xrotation Yrotation 
					JOINT Toes_R
					{
						OFFSET -11.7543 0.0 0.0
						CHANNELS 6 Xposition Yposition Zposition Zrotation Xrotation Yrotation 
						End Site
						{
							OFFSET 0.0 0.0 0.0
						}
					}
				}
			}
		}
	}
}
MOTION
Frames:	4
Frame Time:	0.0333333
0.000000 0.000000 0.000000 0.000000 0.000000 -0.000000 -1.364410 90.790900 1.288160 89.166300 -0.258174 12.416100 15.735700 0.000005 -0.000001 91.514200 82.759300 -92.995100 8.984550 -0.406207 -0.000000 6.717330 0.394977 -2.981700 16.377300 -0.000001 -0.000001 33.798700 -1.934410 11.156500 6.456720 -0.000001 -0.000000 19.254100 -6.578180 -8.337410 12.994200 -0.242716 4.980390 -90.604400 1.916060 -72.489700 5.348090 -0.000007 -0.000001 -64.648600 35.971900 -10.916000 24.328600 0.000019 0.000005 7.952900 24.841700 -18.393700 22.291600 -0.000001 0.000005 11.122300 5.232390 1.893640 12.994500 -0.242716 -4.980390 91.825400 -4.810230 -69.189900 -5.348130 -0.000001 -0.000004 -35.679700 -54.046400 -69.425900 -24.328900 0.000322 -0.000009 -0.356534 -0.726002 -26.106300 -22.291500 -0.000108 -0.000004 26.553400 5.428220 -3.877820 -2.192480 -6.469440 -0.000000 -173.938000 -8.263370 3.163670 39.081100 -0.000007 -0.000012 -0.156102 0.268329 30.189200 40.985400 -0.000006 -0.000013 -0.183070 6.142910 -70.905100 11.754300 -0.000000 0.000003 -0.000093 -0.000964 -16.614600 -2.192510 6.469440 -0.000001 173.493000 20.014900 -174.071000 -39.081100 -0.002282 -0.040193 -0.161833 0.301859 28.681800 -40.985400 0.000008 0.000006 2.718320 11.567300 -71.449700 -11.754300 -0.000006 -0.000006 -0.004314 -0.054666 -18.796900
0.000000 0.000000 0.000000 0.000000 0.000000 -0.000000 -1.466770 90.790100 1.350390 89.204800 0.056742 12.349900 15.735700 0.000005 -0.000001 91.900500 82.748100 -93.444200 8.984550 -0.406207 -0.000000 6.738520 0.493253 -3.112980 16.377300 -0.000001 -0.000001 33.615200 -1.647460 10.541500 6.456720 -0.000001 -0.000000 19.201800 -6.125830 -8.565450 12.994200 -0.242716 4.980390 -90.620300 1.937760 -72.245500 5.348090 -0.000007 -0.000001 -64.407800 34.937800 -10.337200 24.328600 0.000019 0.000005 7.941550 24.840300 -18.369800 22.291600 -0.000001 0.000005 11.149800 5.229650 1.964660 12.994500 -0.242716 -4.980390 91.731400 -4.623680 -69.445100 -5.348130 -0.000001 -0.000004 -34.082500 -53.792400 -64.361800 -24.328900 0.000322 -0.000009 -0.572560 -1.352310 -22.917000 -22.291500 -0.000108 -0.000004 26.131300 5.415610 -3.450140 -2.192480 -6.469440 -0.000000 -173.954000 -8.067400 3.110120 39.081100 -0.000007 -0.000012 -0.155669 0.268108 30.140600 40.985400 -0.000006 -0.000013 -0.230417 6.246230 -70.884600 11.754300 -0.000000 0.000003 -0.000083 -0.000875 -16.611200 -2.192510 6.469440 -0.000001 173.463000 20.268300 -174.012000 -39.081100 -0.002282 -0.040193 -0.162876 0.304242 28.644100 -40.985400 0.000008 0.000006 2.755090 11.489100 -71.524700 -11.754300 -0.000006 -0.000006 -0.004430 -0.055839 -18.844700
0.000000 0.000000 0.000000 0.000000 0.000000 -0.000000 -1.588600 90.792300 1.379940 89.221900 0.451453 12.218600 15.735700 0.000005 -0.000001 91.903600 82.749600 -93.498000 8.984550 -0.406207 -0.000000 6.735770 0.494447 -3.214230 16.377300 -0.000001 -0.000001 33.425800 -1.337870 10.106800 6.456720 -0.000001 -0.000000 19.112100 -5.723510 -9.029080 12.994200 -0.242716 4.980390 -90.633000 1.961290 -72.108100 5.348090 -0.000007 -0.000001 -64.197600 34.166000 -9.841670 24.328600 0.000019 0.000005 7.973420 24.982600 -18.347700 22.291600 -0.000001 0.000005 11.066700 5.224250 2.103670 12.994500 -0.242716 -4.980390 91.658500 -4.486720 -69.688600 -5.348130 -0.000001 -0.000004 -34.158400 -53.672600 -60.578000 -24.328900 0.000322 -0.000009 -0.696545 -1.929960 -19.824300 -22.291500 -0.000108 -0.000004 25.384900 5.398410 -2.885100 -2.192480 -6.469440 -0.000000 -173.968000 -7.710970 2.934430 39.081100 -0.000007 -0.000012 -0.159697 0.275432 30.105600 40.985400 -0.000006 -0.000013 -0.304978 6.352940 -70.833600 11.754300 -0.000000 0.000003 -0.000090 -0.000942 -16.613800 -2.192510 6.469440 -0.000001 173.515000 20.557200 -174.044000 -39.081100 -0.002282 -0.040193 -0.160384 0.300233 28.599700 -40.985400 0.000008 0.000006 2.797060 11.337900 -71.576500 -11.754300 -0.000006 -0.000006 -0.004290 -0.054426 -18.787200
0.000000 0.000000 0.000000 0.000000 0.000000 -0.000000 -1.712110 90.786100 1.396000 89.263600 0.854272 12.108900 15.735700 0.000005 -0.000001 91.708100 82.723400 -93.367600 8.984550 -0.406207 -0.000000 6.789580 0.446486 -3.341900 16.377300 -0.000001 -0.000001 33.257600 -1.040960 9.602410 6.456720 -0.000001 -0.000000 18.971600 -5.192770 -9.361050 12.994200 -0.242716 4.980390 -90.634300 1.952300 -71.996900 5.348090 -0.000007 -0.000001 -64.023900 33.601400 -9.552870 24.328600 0.000019 0.000005 7.961520 25.093500 -18.251100 22.291600 -0.000001 0.000005 11.087100 5.223480 2.123470 12.994500 -0.242716 -4.980390 91.550000 -4.234540 -69.874300 -5.348130 -0.000001 -0.000004 -35.669600 -53.959500 -58.043700 -24.328900 0.000322 -0.000009 -0.529737 -1.729760 -16.994100 -22.291500 -0.000108 -0.000004 24.761200 5.365210 -1.838360 -2.192480 -6.469440 -0.000000 -174.027000 -7.397800 2.751610 39.081100 -0.000007 -0.000012 -0.156185 0.269246 30.117500 40.985400 -0.000006 -0.000013 -0.378146 6.379150 -70.796500 11.754300 -0.000000 0.000003 -0.000088 -0.000920 -16.613000 -2.192510 6.469440 -0.000001 173.561000 20.760000 -174.103000 -39.081100 -0.002282 -0.040193 -0.161755 0.302470 28.621800 -40.985400 0.000008 0.000006 2.823030 11.112400 -71.652100 -11.754300 -0.000006 -0.000006 -0.004312 -0.054644 -18.796100
